<mxfile host="app.diagrams.net" modified="2023-02-21T15:39:56.181Z" agent="5.0 (Windows NT 10.0; Win64; x64) AppleWebKit/537.36 (KHTML, like Gecko) Chrome/109.0.0.0 Safari/537.36" etag="F-EwHJdC-mIvA7VNT9HE" version="20.8.21" type="github">
  <diagram name="Page-1" id="c9db0220-8083-56f3-ca83-edcdcd058819">
    <mxGraphModel dx="1985" dy="1155" grid="1" gridSize="10" guides="1" tooltips="1" connect="1" arrows="1" fold="1" page="1" pageScale="1.5" pageWidth="826" pageHeight="1169" background="none" math="0" shadow="0">
      <root>
        <mxCell id="0" style=";html=1;" />
        <mxCell id="1" style=";html=1;" parent="0" />
        <mxCell id="4U7HyFoiNLyfHuLxadOc-6" value="" style="rounded=1;whiteSpace=wrap;html=1;strokeColor=#000000;fontSize=33;strokeWidth=2;" vertex="1" parent="1">
          <mxGeometry x="94" y="80" width="1050" height="520" as="geometry" />
        </mxCell>
        <mxCell id="4U7HyFoiNLyfHuLxadOc-3" value="&lt;font style=&quot;font-size: 33px;&quot;&gt;Loading message&lt;/font&gt;" style="text;html=1;align=center;verticalAlign=middle;resizable=0;points=[];autosize=1;strokeColor=none;fillColor=none;" vertex="1" parent="1">
          <mxGeometry x="479" y="400" width="280" height="50" as="geometry" />
        </mxCell>
        <mxCell id="4U7HyFoiNLyfHuLxadOc-4" value="" style="sketch=0;html=1;aspect=fixed;strokeColor=none;shadow=0;align=center;verticalAlign=top;fillColor=#3B8DF1;shape=mxgraph.gcp2.loading_2;fontSize=33;" vertex="1" parent="1">
          <mxGeometry x="559" y="210" width="120.9" height="130" as="geometry" />
        </mxCell>
      </root>
    </mxGraphModel>
  </diagram>
</mxfile>
